    <svg width="31" height="31" viewBox="0 0 31 31" fill="none" xmlns="http://www.w3.org/2000/svg">
<path d="M22.5273 3.7891H7.5083C4.74229 3.7891 2.50195 6.01692 2.50195 8.7579V21.3489C2.50195 24.0898 4.74229 26.3177 7.5083 26.3177H22.5273C25.2933 26.3177 27.5337 24.0898 27.5337 21.3489V8.7579C27.5337 6.01692 25.2933 3.7891 22.5273 3.7891ZM10.6373 9.00822C12.2268 9.00822 13.5284 10.3099 13.5284 11.8994C13.5284 13.4889 12.2268 14.7905 10.6373 14.7905C9.04775 14.7905 7.7461 13.4889 7.7461 11.8994C7.7461 10.3099 9.04775 9.00822 10.6373 9.00822ZM15.4809 20.8858C15.3683 21.0109 15.193 21.086 15.0178 21.086H6.25671C6.08149 21.086 5.90627 21.0109 5.79363 20.8858C5.68098 20.7606 5.6184 20.5854 5.63092 20.4102C5.84369 18.3075 7.52082 16.6429 9.62348 16.4426C10.2868 16.3801 10.9752 16.3801 11.6385 16.4426C13.7412 16.6429 15.4308 18.3075 15.6311 20.4102C15.6561 20.5854 15.5936 20.7606 15.4809 20.8858ZM23.7789 20.9984H21.2758C20.7626 20.9984 20.3371 20.5729 20.3371 20.0597C20.3371 19.5466 20.7626 19.121 21.2758 19.121H23.7789C24.2921 19.121 24.7176 19.5466 24.7176 20.0597C24.7176 20.5729 24.2921 20.9984 23.7789 20.9984ZM23.7789 15.9921H18.7726C18.2594 15.9921 17.8339 15.5665 17.8339 15.0534C17.8339 14.5402 18.2594 14.1147 18.7726 14.1147H23.7789C24.2921 14.1147 24.7176 14.5402 24.7176 15.0534C24.7176 15.5665 24.2921 15.9921 23.7789 15.9921ZM23.7789 10.9857H17.521C17.0078 10.9857 16.5823 10.5602 16.5823 10.047C16.5823 9.53388 17.0078 9.10834 17.521 9.10834H23.7789C24.2921 9.10834 24.7176 9.53388 24.7176 10.047C24.7176 10.5602 24.2921 10.9857 23.7789 10.9857Z" fill="#336667"/>
</svg>
