<svg width="71" height="71" viewBox="0 0 71 71" fill="none" xmlns="http://www.w3.org/2000/svg">
<path d="M41.4193 65.084V53.2507C41.4193 51.6815 40.7959 50.1765 39.6863 49.0669C38.5767 47.9573 37.0718 47.334 35.5026 47.334C33.9334 47.334 32.4285 47.9573 31.3189 49.0669C30.2093 50.1765 29.5859 51.6815 29.5859 53.2507V65.084" stroke="#30828D" stroke-width="2" stroke-linecap="round" stroke-linejoin="round"/>
<path d="M53.2513 29.5837L65.0846 35.5003V59.167C65.0846 60.7362 64.4613 62.2411 63.3517 63.3507C62.2421 64.4603 60.7372 65.0837 59.168 65.0837H11.8346C10.2654 65.0837 8.76051 64.4603 7.65092 63.3507C6.54133 62.2411 5.91797 60.7362 5.91797 59.167V35.5003L17.7513 29.5837M53.2513 14.792V65.0837M11.8346 17.7503L35.5013 5.91699L59.168 17.7503M17.7513 14.792V65.0837" stroke="#30828D" stroke-width="2" stroke-linecap="round" stroke-linejoin="round"/>
<path d="M35.5026 32.5423C38.7703 32.5423 41.4193 29.8933 41.4193 26.6257C41.4193 23.358 38.7703 20.709 35.5026 20.709C32.2349 20.709 29.5859 23.358 29.5859 26.6257C29.5859 29.8933 32.2349 32.5423 35.5026 32.5423Z" stroke="#30828D" stroke-width="2" stroke-linecap="round" stroke-linejoin="round"/>
</svg>
