<svg width="28" height="28" viewBox="0 0 28 28" fill="none" xmlns="http://www.w3.org/2000/svg">
<path d="M24.7817 9.59675V4.48277C24.7817 2.89451 24.0608 2.25244 22.2697 2.25244H17.719C15.9279 2.25244 15.207 2.89451 15.207 4.48277V9.58549C15.207 11.185 15.9279 11.8158 17.719 11.8158H22.2697C24.0608 11.8271 24.7817 11.185 24.7817 9.59675Z" fill="#336667"/>
<path d="M24.7817 22.2692V17.7185C24.7817 15.9275 24.0608 15.2065 22.2697 15.2065H17.719C15.9279 15.2065 15.207 15.9275 15.207 17.7185V22.2692C15.207 24.0603 15.9279 24.7812 17.719 24.7812H22.2697C24.0608 24.7812 24.7817 24.0603 24.7817 22.2692Z" fill="#336667"/>
<path d="M11.8266 9.59675V4.48277C11.8266 2.89451 11.1057 2.25244 9.31466 2.25244H4.76389C2.97287 2.25244 2.25195 2.89451 2.25195 4.48277V9.58549C2.25195 11.185 2.97287 11.8158 4.76389 11.8158H9.31466C11.1057 11.8271 11.8266 11.185 11.8266 9.59675Z" fill="#336667"/>
<path d="M11.8266 22.2692V17.7185C11.8266 15.9275 11.1057 15.2065 9.31466 15.2065H4.76389C2.97287 15.2065 2.25195 15.9275 2.25195 17.7185V22.2692C2.25195 24.0603 2.97287 24.7812 4.76389 24.7812H9.31466C11.1057 24.7812 11.8266 24.0603 11.8266 22.2692Z" fill="#336667"/>
</svg>
