<svg width="23" height="23" viewBox="0 0 23 23" fill="none" xmlns="http://www.w3.org/2000/svg">
<path d="M21.9062 11.4999H8.00688M3.10075 11.4999H1.09375M3.10075 11.4999C3.10075 10.8494 3.35914 10.2256 3.81907 9.7657C4.279 9.30576 4.90281 9.04738 5.55325 9.04738C6.20369 9.04738 6.8275 9.30576 7.28743 9.7657C7.74736 10.2256 8.00575 10.8494 8.00575 11.4999C8.00575 12.1503 7.74736 12.7741 7.28743 13.2341C6.8275 13.694 6.20369 13.9524 5.55325 13.9524C4.90281 13.9524 4.279 13.694 3.81907 13.2341C3.35914 12.7741 3.10075 12.1503 3.10075 11.4999ZM21.9062 18.9328H15.4397M15.4397 18.9328C15.4397 19.5833 15.1807 20.2079 14.7207 20.6679C14.2607 21.1279 13.6367 21.3864 12.9861 21.3864C12.3357 21.3864 11.7119 21.1269 11.2519 20.6669C10.792 20.207 10.5336 19.5832 10.5336 18.9328M15.4397 18.9328C15.4397 18.2822 15.1807 17.6588 14.7207 17.1987C14.2607 16.7387 13.6367 16.4803 12.9861 16.4803C12.3357 16.4803 11.7119 16.7386 11.2519 17.1986C10.792 17.6585 10.5336 18.2823 10.5336 18.9328M10.5336 18.9328H1.09375M21.9062 4.067H18.4131M13.507 4.067H1.09375M13.507 4.067C13.507 3.41656 13.7654 2.79276 14.2253 2.33282C14.6853 1.87289 15.3091 1.6145 15.9595 1.6145C16.2816 1.6145 16.6005 1.67794 16.898 1.80119C17.1956 1.92444 17.4659 2.10509 17.6937 2.33282C17.9214 2.56056 18.1021 2.83092 18.2253 3.12847C18.3486 3.42602 18.412 3.74494 18.412 4.067C18.412 4.38907 18.3486 4.70798 18.2253 5.00553C18.1021 5.30308 17.9214 5.57345 17.6937 5.80118C17.4659 6.02892 17.1956 6.20957 16.898 6.33282C16.6005 6.45607 16.2816 6.5195 15.9595 6.5195C15.3091 6.5195 14.6853 6.26111 14.2253 5.80118C13.7654 5.34125 13.507 4.71745 13.507 4.067Z" stroke="white" stroke-width="1.6875" stroke-miterlimit="10" stroke-linecap="round"/>
</svg>
