<svg width="17" height="15" viewBox="0 0 17 15" fill="none" xmlns="http://www.w3.org/2000/svg">
<path d="M14.7997 2.24488C14.4465 1.89153 14.0272 1.61123 13.5656 1.41999C13.1041 1.22875 12.6094 1.13032 12.1098 1.13032C11.6102 1.13032 11.1155 1.22875 10.654 1.41999C10.1924 1.61123 9.77308 1.89153 9.4199 2.24488L8.68692 2.97786L7.95394 2.24488C7.24053 1.53148 6.27295 1.13069 5.26405 1.13069C4.25514 1.13069 3.28756 1.53148 2.57415 2.24488C1.86075 2.95828 1.45996 3.92587 1.45996 4.93477C1.45996 5.94368 1.86075 6.91126 2.57415 7.62467L3.30713 8.35765L8.68692 13.7374L14.0667 8.35765L14.7997 7.62467C15.153 7.27148 15.4333 6.85214 15.6246 6.3906C15.8158 5.92906 15.9142 5.43437 15.9142 4.93477C15.9142 4.43518 15.8158 3.94048 15.6246 3.47894C15.4333 3.0174 15.153 2.59806 14.7997 2.24488V2.24488Z" stroke="#A2B2BD" stroke-width="1.38298" stroke-linecap="round" stroke-linejoin="round"/>
</svg>
