<svg width="55" height="56" viewBox="0 0 55 56" fill="none" xmlns="http://www.w3.org/2000/svg">
<path d="M53 51.6671V17.6671C53 16.9156 52.7016 16.1949 52.1704 15.6635C51.6391 15.132 50.9186 14.8332 50.1671 14.8328H4.83288C3.26888 14.8328 2 16.1017 2 17.6671V51.6671C2 53.2311 3.26888 54.5 4.83288 54.5H50.1671C51.7311 54.5 53 53.2311 53 51.6671Z" fill="#30828D" stroke="#30828D" stroke-width="2.60667" stroke-linecap="round" stroke-linejoin="round"/>
<path d="M38.8357 14.8329H16.1699V6.33288C16.1699 5.58155 16.4684 4.861 16.9997 4.32973C17.5309 3.79846 18.2515 3.5 19.0028 3.5H36.0028C36.7541 3.5 37.4747 3.79846 38.006 4.32973C38.5372 4.861 38.8357 5.58155 38.8357 6.33288V14.8329Z" stroke="#30828D" stroke-width="5.43055" stroke-linecap="round" stroke-linejoin="round"/>
<path d="M9.55273 24.5888H45.4416" stroke="#F5F5F5" stroke-width="5.0332" stroke-linecap="round"/>
<path d="M38.4395 24.5888V32.4668" stroke="#F5F5F5" stroke-width="5.0332" stroke-linecap="round"/>
</svg>
