<svg width="26" height="27" viewBox="0 0 26 27" fill="none" xmlns="http://www.w3.org/2000/svg">
<path d="M25 24.7392V8.73923C25 8.38561 24.8596 8.04646 24.6096 7.79635C24.3596 7.54624 24.0205 7.40564 23.6669 7.40547H2.33312C1.59712 7.40547 1 8.00259 1 8.73923V24.7392C1 25.4752 1.59712 26.0724 2.33312 26.0724H23.6669C24.4029 26.0724 25 25.4752 25 24.7392Z" fill="#A7AEBF" stroke="#A7AEBF" stroke-width="1.22667" stroke-linecap="round" stroke-linejoin="round"/>
<path d="M18.3342 7.40548H7.66797V3.40548C7.66797 3.05191 7.80842 2.71283 8.05843 2.46282C8.30844 2.21281 8.64752 2.07236 9.00109 2.07236H17.0011C17.3547 2.07236 17.6937 2.21281 17.9437 2.46282C18.1938 2.71283 18.3342 3.05191 18.3342 3.40548V7.40548Z" stroke="#A7AEBF" stroke-width="2.55556" stroke-linecap="round" stroke-linejoin="round"/>
<path d="M4.55469 11.9965H21.4436" stroke="#F5F5F5" stroke-width="2.36856" stroke-linecap="round"/>
<path d="M18.1484 11.9965V15.7038" stroke="#F5F5F5" stroke-width="2.36856" stroke-linecap="round"/>
</svg>
