<svg width="27" height="25" viewBox="0 0 27 25" fill="none" xmlns="http://www.w3.org/2000/svg">
<path d="M4.81465 23.7492C4.62557 23.9136 4.3935 24.0207 4.1457 24.0578C3.8979 24.0949 3.64464 24.0606 3.41567 23.9589C3.1867 23.8571 2.99151 23.6921 2.85302 23.4833C2.71454 23.2745 2.6385 23.0305 2.63383 22.7799V19.8261C1.9353 19.8261 1.26537 19.5486 0.771432 19.0547C0.277492 18.5607 0 17.8908 0 17.1923V7.97386C0 7.27532 0.277492 6.60539 0.771432 6.11145C1.26537 5.61752 1.9353 5.34002 2.63383 5.34002H17.1199C17.8185 5.34002 18.4884 5.61752 18.9823 6.11145C19.4763 6.60539 19.7537 7.27532 19.7537 7.97386V17.1923C19.7537 17.8908 19.4763 18.5607 18.9823 19.0547C18.4884 19.5486 17.8185 19.8261 17.1199 19.8261H10.5393L4.81465 23.7492ZM21.0707 13.2639C21.0665 13.4259 21.0665 13.5879 21.0707 13.7499V13.2639ZM21.0707 13.2639C21.0772 13.123 21.0786 11.3583 21.0759 7.97122C21.0749 6.9241 20.6582 5.92023 19.9174 5.18017C19.1766 4.44012 18.1723 4.02442 17.1252 4.02442H6.58458V2.70619C6.58458 2.00765 6.86208 1.33773 7.35601 0.843789C7.84995 0.34985 8.51988 0.0723572 9.21842 0.0723572L23.7045 0.0723572C24.403 0.0723572 25.073 0.34985 25.5669 0.843789C26.0608 1.33773 26.3383 2.00765 26.3383 2.70619V11.9246C26.3383 12.6231 26.0608 13.2931 25.5669 13.787C25.073 14.2809 24.403 14.5584 23.7045 14.5584V17.5123C23.6998 17.7628 23.6238 18.0068 23.4853 18.2156C23.3468 18.4244 23.1516 18.5894 22.9227 18.6912C22.6937 18.793 22.4404 18.8273 22.1926 18.7901C21.9448 18.753 21.7128 18.6459 21.5237 18.4815L21.0707 18.1707V13.2639Z" fill="#A7AEBF"/>
</svg>
