<svg width="97" height="97" viewBox="0 0 97 97" fill="none" xmlns="http://www.w3.org/2000/svg">
<rect x="0.5" y="0.5" width="96" height="96" rx="7.5" fill="#F5F5F5" stroke="url(#paint0_linear_382_1615)"/>
<path fill-rule="evenodd" clip-rule="evenodd" d="M49 27C45.1521 26.9993 41.3713 28.0078 38.035 29.925C34.6987 31.8421 31.9235 34.6008 29.9866 37.9256C28.0496 41.2505 27.0186 45.0252 26.9964 48.873C26.9742 52.7209 27.9616 56.5073 29.86 59.8542C31.1432 58.1866 32.7927 56.8364 34.681 55.9079C36.5693 54.9795 38.6458 54.4978 40.75 54.5H57.25C59.3542 54.4978 61.4307 54.9795 63.319 55.9079C65.2074 56.8364 66.8568 58.1866 68.14 59.8542C70.0385 56.5073 71.0259 52.7209 71.0037 48.873C70.9815 45.0252 69.9505 41.2505 68.0135 37.9256C66.0765 34.6008 63.3014 31.8421 59.9651 29.925C56.6287 28.0078 52.8479 26.9993 49 27ZM70.8433 65.709C74.5201 60.9157 76.5089 55.0411 76.5 49C76.5 33.8117 64.1883 21.5 49 21.5C33.8118 21.5 21.5 33.8117 21.5 49C21.491 55.0411 23.4798 60.9158 27.1568 65.709L27.143 65.7585L28.1193 66.8942C30.6985 69.9096 33.9008 72.3299 37.5057 73.9883C41.1105 75.6466 45.0321 76.5035 49 76.5C54.5752 76.5103 60.0204 74.8167 64.6063 71.6462C66.5613 70.2955 68.3341 68.6983 69.8808 66.8942L70.857 65.7585L70.8433 65.709ZM49 32.5C46.812 32.5 44.7136 33.3692 43.1664 34.9164C41.6192 36.4635 40.75 38.562 40.75 40.75C40.75 42.938 41.6192 45.0365 43.1664 46.5836C44.7136 48.1308 46.812 49 49 49C51.1881 49 53.2865 48.1308 54.8337 46.5836C56.3808 45.0365 57.25 42.938 57.25 40.75C57.25 38.562 56.3808 36.4635 54.8337 34.9164C53.2865 33.3692 51.1881 32.5 49 32.5Z" fill="#30828D"/>
<defs>
<linearGradient id="paint0_linear_382_1615" x1="0" y1="48.5" x2="97" y2="48.5" gradientUnits="userSpaceOnUse">
<stop stop-color="#E0E0E0"/>
<stop offset="0.265" stop-color="#F2F2F2"/>
<stop offset="0.51" stop-color="#E0E0E0"/>
<stop offset="0.81" stop-color="#EEEDED"/>
<stop offset="1" stop-color="#EAEAEA"/>
</linearGradient>
</defs>
</svg>
