<svg width="50" height="50" viewBox="0 0 50 50" fill="none" xmlns="http://www.w3.org/2000/svg">
<rect x="48.3571" y="48.3572" width="46.7143" height="46.7143" rx="23.3571" transform="rotate(-180 48.3571 48.3572)" fill="white" fill-opacity="0.6" stroke="#F26A23" stroke-width="3.28571"/>
<mask id="path-2-inside-1_247_1536" fill="white">
<path d="M26.6845 32.6602L33.5488 25.7602L26.6845 18.8602C26.6225 18.7788 26.5438 18.7117 26.4536 18.6634C26.3634 18.615 26.2639 18.5867 26.1617 18.5801C26.0596 18.5736 25.9573 18.5891 25.8617 18.6256C25.7661 18.6621 25.6794 18.7186 25.6076 18.7915C25.5358 18.8644 25.4804 18.9518 25.4453 19.048C25.4102 19.1441 25.3962 19.2466 25.4042 19.3486C25.4121 19.4506 25.4419 19.5498 25.4915 19.6393C25.5411 19.7288 25.6094 19.8065 25.6917 19.8674L30.8274 25.0459L17.1631 25.0459C16.9737 25.0459 16.792 25.1212 16.658 25.2551C16.5241 25.3891 16.4488 25.5708 16.4488 25.7602C16.4488 25.9497 16.5241 26.1313 16.658 26.2653C16.792 26.3993 16.9737 26.4745 17.1631 26.4745L30.8274 26.4745L25.6917 31.6531C25.5581 31.7876 25.4835 31.9696 25.4841 32.1592C25.4848 32.3487 25.5608 32.5302 25.6953 32.6638C25.8298 32.7974 26.0118 32.872 26.2014 32.8713C26.3909 32.8707 26.5724 32.7947 26.706 32.6602L26.6845 32.6602Z"/>
</mask>
<path d="M26.6845 32.6602L33.5488 25.7602L26.6845 18.8602C26.6225 18.7788 26.5438 18.7117 26.4536 18.6634C26.3634 18.615 26.2639 18.5867 26.1617 18.5801C26.0596 18.5736 25.9573 18.5891 25.8617 18.6256C25.7661 18.6621 25.6794 18.7186 25.6076 18.7915C25.5358 18.8644 25.4804 18.9518 25.4453 19.048C25.4102 19.1441 25.3962 19.2466 25.4042 19.3486C25.4121 19.4506 25.4419 19.5498 25.4915 19.6393C25.5411 19.7288 25.6094 19.8065 25.6917 19.8674L30.8274 25.0459L17.1631 25.0459C16.9737 25.0459 16.792 25.1212 16.658 25.2551C16.5241 25.3891 16.4488 25.5708 16.4488 25.7602C16.4488 25.9497 16.5241 26.1313 16.658 26.2653C16.792 26.3993 16.9737 26.4745 17.1631 26.4745L30.8274 26.4745L25.6917 31.6531C25.5581 31.7876 25.4835 31.9696 25.4841 32.1592C25.4848 32.3487 25.5608 32.5302 25.6953 32.6638C25.8298 32.7974 26.0118 32.872 26.2014 32.8713C26.3909 32.8707 26.5724 32.7947 26.706 32.6602L26.6845 32.6602Z" fill="#30828D"/>
<path d="M26.6845 32.6602L24.3552 30.3429L18.7811 35.9459L26.6845 35.9459L26.6845 32.6602ZM33.5488 25.7602L35.8782 28.0775L38.1835 25.7602L35.8782 23.4429L33.5488 25.7602ZM26.6845 18.8602L24.0705 20.8508L24.202 21.0236L24.3552 21.1775L26.6845 18.8602ZM25.6917 19.8674L28.0247 17.5537L27.8473 17.3749L27.6448 17.2251L25.6917 19.8674ZM30.8274 25.0459L30.8274 28.3317L38.7134 28.3317L33.1604 22.7323L30.8274 25.0459ZM30.8274 26.4745L33.1604 28.7882L38.7134 23.1888L30.8274 23.1888L30.8274 26.4745ZM25.6917 31.6531L28.0232 33.9682L28.0247 33.9668L25.6917 31.6531ZM26.706 32.6602L29.0375 34.9754L34.5989 29.3745L26.706 29.3745L26.706 32.6602ZM29.0139 34.9775L35.8782 28.0775L31.2195 23.4429L24.3552 30.3429L29.0139 34.9775ZM35.8782 23.4429L29.0139 16.5429L24.3552 21.1775L31.2195 28.0775L35.8782 23.4429ZM29.2986 16.8696C28.9514 16.4137 28.5104 16.0377 28.0053 15.7671L24.9019 21.5596C24.5772 21.3856 24.2936 21.1439 24.0705 20.8508L29.2986 16.8696ZM28.0053 15.7671C27.5002 15.4965 26.9428 15.3376 26.371 15.3011L25.9525 21.8592C25.5849 21.8357 25.2266 21.7336 24.9019 21.5596L28.0053 15.7671ZM26.371 15.3011C25.7991 15.2646 25.2261 15.3514 24.6907 15.5556L27.0327 21.6955C26.6885 21.8268 26.3202 21.8826 25.9525 21.8592L26.371 15.3011ZM24.6907 15.5556C24.1553 15.7599 23.67 16.0767 23.2677 16.4848L27.9475 21.0982C27.6889 21.3606 27.3769 21.5643 27.0327 21.6955L24.6907 15.5556ZM23.2677 16.4848C22.8654 16.8929 22.5555 17.3826 22.3589 17.9209L28.5317 20.175C28.4053 20.521 28.2061 20.8359 27.9475 21.0982L23.2677 16.4848ZM22.3589 17.9209C22.1624 18.4592 22.0838 19.0334 22.1284 19.6047L28.6799 19.0926C28.7086 19.4599 28.658 19.829 28.5317 20.175L22.3589 17.9209ZM22.1284 19.6047C22.1731 20.176 22.34 20.731 22.6178 21.2322L28.3653 18.0464C28.5439 18.3685 28.6512 18.7253 28.6799 19.0926L22.1284 19.6047ZM22.6178 21.2322C22.8956 21.7333 23.2778 22.169 23.7386 22.5096L27.6448 17.2251C27.941 17.4441 28.1867 17.7242 28.3653 18.0464L22.6178 21.2322ZM23.3587 22.181L28.4944 27.3596L33.1604 22.7323L28.0247 17.5537L23.3587 22.181ZM30.8274 21.7602L17.1631 21.7602L17.1631 28.3317L30.8274 28.3317L30.8274 21.7602ZM17.1631 21.7602C16.1022 21.7602 15.0848 22.1817 14.3347 22.9318L18.9814 27.5785C18.4991 28.0607 17.8451 28.3317 17.1631 28.3317L17.1631 21.7602ZM14.3347 22.9318C13.5845 23.6819 13.1631 24.6994 13.1631 25.7602L19.7345 25.7602C19.7345 26.4422 19.4636 27.0963 18.9814 27.5785L14.3347 22.9318ZM13.1631 25.7602C13.1631 26.8211 13.5845 27.8385 14.3347 28.5887L18.9814 23.942C19.4636 24.4242 19.7345 25.0782 19.7345 25.7602L13.1631 25.7602ZM14.3347 28.5887C15.0848 29.3388 16.1022 29.7602 17.1631 29.7602L17.1631 23.1888C17.8451 23.1888 18.4991 23.4597 18.9814 23.942L14.3347 28.5887ZM17.1631 29.7602L30.8274 29.7602L30.8274 23.1888L17.1631 23.1888L17.1631 29.7602ZM28.4944 24.1608L23.3587 29.3394L28.0247 33.9668L33.1604 28.7882L28.4944 24.1608ZM23.3601 29.338C22.6126 30.0908 22.1947 31.1098 22.1984 32.1708L28.7698 32.1476C28.7722 32.8294 28.5037 33.4843 28.0232 33.9682L23.3601 29.338ZM22.1984 32.1708C22.2022 33.2317 22.6273 34.2478 23.3801 34.9953L28.0104 30.3323C28.4943 30.8127 28.7674 31.4657 28.7698 32.1476L22.1984 32.1708ZM23.3801 34.9953C24.133 35.7429 25.152 36.1608 26.213 36.157L26.1897 29.5856C26.8716 29.5832 27.5265 29.8518 28.0104 30.3323L23.3801 34.9953ZM26.213 36.157C27.2739 36.1533 28.29 35.7282 29.0375 34.9754L24.3744 30.3451C24.8549 29.8612 25.5079 29.5881 26.1897 29.5856L26.213 36.157ZM26.706 29.3745L26.6845 29.3745L26.6845 35.9459L26.706 35.9459L26.706 29.3745Z" fill="#F26A23" mask="url(#path-2-inside-1_247_1536)"/>
</svg>
