<svg width="28" height="25" viewBox="0 0 28 25" fill="none" xmlns="http://www.w3.org/2000/svg">
<path d="M8.82812 12.4791C8.82812 13.7225 9.32207 14.915 10.2013 15.7942C11.0805 16.6734 12.273 17.1674 13.5164 17.1674C14.7599 17.1674 15.9524 16.6734 16.8316 15.7942C17.7108 14.915 18.2048 13.7225 18.2048 12.4791C18.2048 11.2356 17.7108 10.0432 16.8316 9.16392C15.9524 8.28469 14.7599 7.79074 13.5164 7.79074C12.273 7.79074 11.0805 8.28469 10.2013 9.16392C9.32207 10.0432 8.82812 11.2356 8.82812 12.4791Z" fill="#A7AEBF"/>
<path fill-rule="evenodd" clip-rule="evenodd" d="M0.254229 11.4974C0.087497 11.7975 -5.11089e-07 12.1351 -4.97328e-07 12.4784C-4.83567e-07 12.8216 0.0874971 13.1593 0.25423 13.4593L6.02447 23.8458C6.19942 24.1606 6.4554 24.4229 6.76586 24.6056C7.07632 24.7882 7.42998 24.8845 7.79017 24.8844L19.2441 24.8844C19.9784 24.8844 20.6535 24.4863 21.0098 23.8458L26.78 13.4593C26.9468 13.1593 27.0343 12.8216 27.0343 12.4784C27.0343 12.1351 26.9468 11.7975 26.78 11.4974L21.0098 1.11099C20.835 0.796357 20.5792 0.534162 20.269 0.35155C19.9588 0.168939 19.6055 0.0725451 19.2455 0.0723467L7.79017 0.0723473C7.42997 0.0722882 7.07632 0.16856 6.76586 0.351185C6.4554 0.533809 6.19942 0.796142 6.02447 1.11099L0.254229 11.4974ZM13.5171 19.3305C11.6998 19.3305 9.95695 18.6086 8.67192 17.3236C7.38689 16.0386 6.66497 14.2957 6.66497 12.4784C6.66497 10.6611 7.38689 8.91819 8.67192 7.63316C9.95695 6.34813 11.6998 5.62621 13.5171 5.62621C15.3344 5.62621 17.0773 6.34813 18.3623 7.63316C19.6474 8.91819 20.3693 10.6611 20.3693 12.4784C20.3693 14.2957 19.6474 16.0386 18.3623 17.3236C17.0773 18.6086 15.3344 19.3305 13.5171 19.3305Z" fill="#A7AEBF"/>
</svg>
